<svg xmlns="https://www.w3.org/2000/svg" viewBox="0 0 17 17" id="icon-facebook">
	<title>Facebook</title>
	<path d="m14.1762.823608h-11.49598c-.59726 0-1.17007.237262-1.5924.659592-.422334.42234-.659597.99514-.659597 1.59241v11.49599c0 .5973.237263 1.1701.659597 1.5924.42233.4223.99514.6596 1.5924.6596h5.232v-5.84h-1.978v-2.27799h1.978v-1.678c0-.951.263-1.69.789-2.215.526-.526 1.239-.79 2.13998-.79.902 0 1.486.035 1.753.101v2.028h-1.202c-.434 0-.73.092-.889.276-.158.183-.237.459-.237.826v1.452h2.253l-.3 2.27799h-1.953v5.84h3.91c.5973 0 1.1701-.2373 1.5924-.6596.4224-.4223.6596-.9951.6596-1.5924v-11.49599c0-.59727-.2372-1.17007-.6596-1.59241-.4223-.42233-.9951-.659592-1.5924-.659592z" fill="currentColor"/>
</svg>
