<svg xmlns="https://www.w3.org/2000/svg" viewBox="0 0 17 17" id="icon-instagram">
	<title>Instagram</title>
	<path d="m13.6683 4.78509c0 .1216-.024.24202-.0705.35436-.0465.11235-.1148.21443-.2007.30042-.086.08599-.1881.15419-.3005.20073-.1123.04654-.2327.07049-.3543.07049s-.242-.02395-.3544-.07049c-.1123-.04654-.2144-.11474-.3004-.20073s-.1542-.18807-.2007-.30042c-.0466-.11234-.0705-.23276-.0705-.35436 0-.24559.0975-.48112.2712-.65478s.4092-.27122.6548-.27122.4811.09756.6548.27122c.1736.17366.2712.40919.2712.65478zm2.94 4.18v.012l-.053 3.35601c-.0135 1.2103-.5003 2.3673-1.3561 3.2232-.8557.856-2.0126 1.343-3.2229 1.3568l-3.36802.052h-.012l-3.356-.053c-1.21033-.0135-2.36729-.5003-3.22326-1.356-.85598-.8558-1.342969-2.0127-1.356744-3.223l-.052-3.36801v-.012l.053-3.356c.01351-1.21033.500244-2.36729 1.356034-3.22326.85579-.85598 2.01264-1.34297 3.22297-1.35674l3.368-.052002h.012l3.35602.053002c1.2103.01351 2.3673.50024 3.2232 1.35603.856.85579 1.343 2.01264 1.3568 3.22297zm-1.49 0-.052-3.345c-.0094-.82272-.3404-1.6091-.9221-2.19089-.5818-.58178-1.3682-.91276-2.1909-.92211l-3.34502-.052-3.345.052c-.82272.00935-1.6091.34033-2.19089.92211-.58178.58179-.91276 1.36817-.92211 2.19089l-.052 3.345.052 3.34501c.00935.8227.34033 1.6091.92211 2.1909.58179.5818 1.36817.9127 2.19089.9221l3.345.052 3.34502-.052c.8227-.0094 1.6091-.3403 2.1909-.9221.5817-.5818.9127-1.3682.9221-2.1909zm-2.402 0c0 1.08951-.4328 2.13441-1.2032 2.90481s-1.81531 1.2032-2.90482 1.2032-2.1344-.4328-2.9048-1.2032-1.2032-1.8153-1.2032-2.90481.4328-2.1344 1.2032-2.9048 1.81529-1.2032 2.9048-1.2032 2.13442.4328 2.90482 1.2032 1.2032 1.81529 1.2032 2.9048zm-1.49 0c0-.69434-.2758-1.36024-.7668-1.85121-.49099-.49097-1.15689-.76679-1.85122-.76679-.69434 0-1.36024.27582-1.85121.76679s-.76679 1.15687-.76679 1.85121c0 .69433.27582 1.36021.76679 1.85121s1.15687.7668 1.85121.7668c.69433 0 1.36023-.2758 1.85122-.7668.491-.491.7668-1.15688.7668-1.85121z" fill="currentColor"/>
</svg>
