<svg xmlns="https://www.w3.org/2000/svg" viewBox="0 0 17 17" id="icon-twitter">
	<title>Twitter</title>
	<path d="m15.1453 4.32361v.438c0 1.615-.349 3.174-1.047 4.678-.698 1.50299-1.776 2.77599-3.234 3.81899-1.45901 1.044-3.14601 1.565-5.06401 1.565-1.854 0-3.53-.527-5.031003-1.582.167.023.427003.034.781003.034 1.563 0 2.927-.505 4.094-1.514-.708 0-1.344-.23-1.906-.69-.56204-.459-.97544-1.0742-1.188-1.76799.146.045.355.067.625.067.313 0 .604-.034.875-.1-.75-.18-1.375-.595-1.875-1.246-.5-.65-.75-1.391-.75-2.221v-.067c.48.291.969.437 1.469.437-.98-.673-1.469-1.649-1.469-2.928 0-.583.157-1.178.47-1.784 1.728 2.334 3.978 3.568 6.75 3.702-.06235-.2645-.09422-.53526-.095-.807 0-.965.318-1.795.953-2.49.63701-.696 1.41301-1.043002 2.33001-1.043002.958 0 1.76.370002 2.406 1.110002.812-.179 1.51-.46 2.093-.84-.25.83-.729 1.48-1.437 1.951.73-.112 1.354-.303 1.875-.572-.4286.70773-.9787 1.33433-1.625 1.851z" fill="currentColor"/>
</svg>
